<?xml version="1.0" encoding="utf-8" ?>
<svg baseProfile="full" height="609.6mm" version="1.1" width="457mm" xmlns="http://www.w3.org/2000/svg" xmlns:ev="http://www.w3.org/2001/xml-events" xmlns:xlink="http://www.w3.org/1999/xlink"><defs /><rect fill="none" height="375mm" stroke="red" stroke-width="0.0254mm" width="300mm" x="2mm" y="2mm" /><rect fill="none" height="40mm" stroke="red" stroke-width="0.0254mm" width="300mm" x="2mm" y="377mm" /><rect fill="none" height="40mm" stroke="red" stroke-width="0.0254mm" width="300mm" x="2mm" y="417mm" /><rect fill="none" height="368.65mm" stroke="red" stroke-width="0.0254mm" width="40mm" x="302mm" y="2mm" /><rect fill="none" height="368.65mm" stroke="red" stroke-width="0.0254mm" width="40mm" x="342mm" y="2mm" /><rect fill="none" height="3.8mm" stroke="green" stroke-width="0.0254mm" width="8.5mm" x="7.8mm" y="15.75mm" /><circle cx="10.4mm" cy="44.32mm" fill="none" r="1.4mm" stroke="green" stroke-width="0.0254mm" /><circle cx="10.4mm" cy="62.07mm" fill="none" r="1.4mm" stroke="green" stroke-width="0.0254mm" /><circle cx="34.22mm" cy="17.66mm" fill="none" r="1.4mm" stroke="green" stroke-width="0.0254mm" /><circle cx="34.22mm" cy="44.37mm" fill="none" r="1.4mm" stroke="green" stroke-width="0.0254mm" /><circle cx="34.22mm" cy="70.97mm" fill="none" r="1.4mm" stroke="green" stroke-width="0.0254mm" /><circle cx="52.07mm" cy="17.66mm" fill="none" r="1.4mm" stroke="green" stroke-width="0.0254mm" /><circle cx="52.07mm" cy="44.37mm" fill="none" r="1.4mm" stroke="green" stroke-width="0.0254mm" /><circle cx="52.07mm" cy="70.97mm" fill="none" r="1.4mm" stroke="green" stroke-width="0.0254mm" /><circle cx="76.03mm" cy="26.5mm" fill="none" r="1.4mm" stroke="green" stroke-width="0.0254mm" /><circle cx="76.03mm" cy="44.32mm" fill="none" r="1.4mm" stroke="green" stroke-width="0.0254mm" /><circle cx="76.03mm" cy="62.07mm" fill="none" r="1.4mm" stroke="green" stroke-width="0.0254mm" /><rect fill="none" height="3.8mm" stroke="green" stroke-width="0.0254mm" width="8.5mm" x="80.3mm" y="15.75mm" /><circle cx="82.9mm" cy="44.32mm" fill="none" r="1.4mm" stroke="green" stroke-width="0.0254mm" /><circle cx="82.9mm" cy="62.07mm" fill="none" r="1.4mm" stroke="green" stroke-width="0.0254mm" /><circle cx="106.72mm" cy="17.66mm" fill="none" r="1.4mm" stroke="green" stroke-width="0.0254mm" /><circle cx="106.72mm" cy="44.37mm" fill="none" r="1.4mm" stroke="green" stroke-width="0.0254mm" /><circle cx="106.72mm" cy="70.97mm" fill="none" r="1.4mm" stroke="green" stroke-width="0.0254mm" /><circle cx="124.57mm" cy="17.66mm" fill="none" r="1.4mm" stroke="green" stroke-width="0.0254mm" /><circle cx="124.57mm" cy="44.37mm" fill="none" r="1.4mm" stroke="green" stroke-width="0.0254mm" /><circle cx="124.57mm" cy="70.97mm" fill="none" r="1.4mm" stroke="green" stroke-width="0.0254mm" /><circle cx="148.53mm" cy="26.5mm" fill="none" r="1.4mm" stroke="green" stroke-width="0.0254mm" /><circle cx="148.53mm" cy="44.32mm" fill="none" r="1.4mm" stroke="green" stroke-width="0.0254mm" /><circle cx="148.53mm" cy="62.07mm" fill="none" r="1.4mm" stroke="green" stroke-width="0.0254mm" /><rect fill="none" height="3.8mm" stroke="green" stroke-width="0.0254mm" width="8.5mm" x="152.8mm" y="15.75mm" /><circle cx="155.4mm" cy="44.32mm" fill="none" r="1.4mm" stroke="green" stroke-width="0.0254mm" /><circle cx="155.4mm" cy="62.07mm" fill="none" r="1.4mm" stroke="green" stroke-width="0.0254mm" /><circle cx="179.22mm" cy="17.66mm" fill="none" r="1.4mm" stroke="green" stroke-width="0.0254mm" /><circle cx="179.22mm" cy="44.37mm" fill="none" r="1.4mm" stroke="green" stroke-width="0.0254mm" /><circle cx="179.22mm" cy="70.97mm" fill="none" r="1.4mm" stroke="green" stroke-width="0.0254mm" /><circle cx="197.07mm" cy="17.66mm" fill="none" r="1.4mm" stroke="green" stroke-width="0.0254mm" /><circle cx="197.07mm" cy="44.37mm" fill="none" r="1.4mm" stroke="green" stroke-width="0.0254mm" /><circle cx="197.07mm" cy="70.97mm" fill="none" r="1.4mm" stroke="green" stroke-width="0.0254mm" /><circle cx="221.03mm" cy="26.5mm" fill="none" r="1.4mm" stroke="green" stroke-width="0.0254mm" /><circle cx="221.03mm" cy="44.32mm" fill="none" r="1.4mm" stroke="green" stroke-width="0.0254mm" /><circle cx="221.03mm" cy="62.07mm" fill="none" r="1.4mm" stroke="green" stroke-width="0.0254mm" /><rect fill="none" height="3.8mm" stroke="green" stroke-width="0.0254mm" width="8.5mm" x="225.3mm" y="15.75mm" /><circle cx="227.9mm" cy="44.32mm" fill="none" r="1.4mm" stroke="green" stroke-width="0.0254mm" /><circle cx="227.9mm" cy="62.07mm" fill="none" r="1.4mm" stroke="green" stroke-width="0.0254mm" /><circle cx="251.72mm" cy="17.66mm" fill="none" r="1.4mm" stroke="green" stroke-width="0.0254mm" /><circle cx="251.72mm" cy="44.37mm" fill="none" r="1.4mm" stroke="green" stroke-width="0.0254mm" /><circle cx="251.72mm" cy="70.97mm" fill="none" r="1.4mm" stroke="green" stroke-width="0.0254mm" /><circle cx="269.57mm" cy="17.66mm" fill="none" r="1.4mm" stroke="green" stroke-width="0.0254mm" /><circle cx="269.57mm" cy="44.37mm" fill="none" r="1.4mm" stroke="green" stroke-width="0.0254mm" /><circle cx="269.57mm" cy="70.97mm" fill="none" r="1.4mm" stroke="green" stroke-width="0.0254mm" /><circle cx="293.53mm" cy="26.5mm" fill="none" r="1.4mm" stroke="green" stroke-width="0.0254mm" /><circle cx="293.53mm" cy="44.32mm" fill="none" r="1.4mm" stroke="green" stroke-width="0.0254mm" /><circle cx="293.53mm" cy="62.07mm" fill="none" r="1.4mm" stroke="green" stroke-width="0.0254mm" /><rect fill="none" height="3.8mm" stroke="green" stroke-width="0.0254mm" width="8.5mm" x="7.8mm" y="88.25mm" /><circle cx="10.4mm" cy="116.82mm" fill="none" r="1.4mm" stroke="green" stroke-width="0.0254mm" /><circle cx="10.4mm" cy="134.57mm" fill="none" r="1.4mm" stroke="green" stroke-width="0.0254mm" /><circle cx="34.22mm" cy="90.16mm" fill="none" r="1.4mm" stroke="green" stroke-width="0.0254mm" /><circle cx="34.22mm" cy="116.87mm" fill="none" r="1.4mm" stroke="green" stroke-width="0.0254mm" /><circle cx="34.22mm" cy="143.47mm" fill="none" r="1.4mm" stroke="green" stroke-width="0.0254mm" /><circle cx="52.07mm" cy="90.16mm" fill="none" r="1.4mm" stroke="green" stroke-width="0.0254mm" /><circle cx="52.07mm" cy="116.87mm" fill="none" r="1.4mm" stroke="green" stroke-width="0.0254mm" /><circle cx="52.07mm" cy="143.47mm" fill="none" r="1.4mm" stroke="green" stroke-width="0.0254mm" /><circle cx="76.03mm" cy="99.0mm" fill="none" r="1.4mm" stroke="green" stroke-width="0.0254mm" /><circle cx="76.03mm" cy="116.82mm" fill="none" r="1.4mm" stroke="green" stroke-width="0.0254mm" /><circle cx="76.03mm" cy="134.57mm" fill="none" r="1.4mm" stroke="green" stroke-width="0.0254mm" /><rect fill="none" height="3.8mm" stroke="green" stroke-width="0.0254mm" width="8.5mm" x="80.3mm" y="88.25mm" /><circle cx="82.9mm" cy="116.82mm" fill="none" r="1.4mm" stroke="green" stroke-width="0.0254mm" /><circle cx="82.9mm" cy="134.57mm" fill="none" r="1.4mm" stroke="green" stroke-width="0.0254mm" /><circle cx="106.72mm" cy="90.16mm" fill="none" r="1.4mm" stroke="green" stroke-width="0.0254mm" /><circle cx="106.72mm" cy="116.87mm" fill="none" r="1.4mm" stroke="green" stroke-width="0.0254mm" /><circle cx="106.72mm" cy="143.47mm" fill="none" r="1.4mm" stroke="green" stroke-width="0.0254mm" /><circle cx="124.57mm" cy="90.16mm" fill="none" r="1.4mm" stroke="green" stroke-width="0.0254mm" /><circle cx="124.57mm" cy="116.87mm" fill="none" r="1.4mm" stroke="green" stroke-width="0.0254mm" /><circle cx="124.57mm" cy="143.47mm" fill="none" r="1.4mm" stroke="green" stroke-width="0.0254mm" /><circle cx="148.53mm" cy="99.0mm" fill="none" r="1.4mm" stroke="green" stroke-width="0.0254mm" /><circle cx="148.53mm" cy="116.82mm" fill="none" r="1.4mm" stroke="green" stroke-width="0.0254mm" /><circle cx="148.53mm" cy="134.57mm" fill="none" r="1.4mm" stroke="green" stroke-width="0.0254mm" /><rect fill="none" height="3.8mm" stroke="green" stroke-width="0.0254mm" width="8.5mm" x="152.8mm" y="88.25mm" /><circle cx="155.4mm" cy="116.82mm" fill="none" r="1.4mm" stroke="green" stroke-width="0.0254mm" /><circle cx="155.4mm" cy="134.57mm" fill="none" r="1.4mm" stroke="green" stroke-width="0.0254mm" /><circle cx="179.22mm" cy="90.16mm" fill="none" r="1.4mm" stroke="green" stroke-width="0.0254mm" /><circle cx="179.22mm" cy="116.87mm" fill="none" r="1.4mm" stroke="green" stroke-width="0.0254mm" /><circle cx="179.22mm" cy="143.47mm" fill="none" r="1.4mm" stroke="green" stroke-width="0.0254mm" /><circle cx="197.07mm" cy="90.16mm" fill="none" r="1.4mm" stroke="green" stroke-width="0.0254mm" /><circle cx="197.07mm" cy="116.87mm" fill="none" r="1.4mm" stroke="green" stroke-width="0.0254mm" /><circle cx="197.07mm" cy="143.47mm" fill="none" r="1.4mm" stroke="green" stroke-width="0.0254mm" /><circle cx="221.03mm" cy="99.0mm" fill="none" r="1.4mm" stroke="green" stroke-width="0.0254mm" /><circle cx="221.03mm" cy="116.82mm" fill="none" r="1.4mm" stroke="green" stroke-width="0.0254mm" /><circle cx="221.03mm" cy="134.57mm" fill="none" r="1.4mm" stroke="green" stroke-width="0.0254mm" /><rect fill="none" height="3.8mm" stroke="green" stroke-width="0.0254mm" width="8.5mm" x="225.3mm" y="88.25mm" /><circle cx="227.9mm" cy="116.82mm" fill="none" r="1.4mm" stroke="green" stroke-width="0.0254mm" /><circle cx="227.9mm" cy="134.57mm" fill="none" r="1.4mm" stroke="green" stroke-width="0.0254mm" /><circle cx="251.72mm" cy="90.16mm" fill="none" r="1.4mm" stroke="green" stroke-width="0.0254mm" /><circle cx="251.72mm" cy="116.87mm" fill="none" r="1.4mm" stroke="green" stroke-width="0.0254mm" /><circle cx="251.72mm" cy="143.47mm" fill="none" r="1.4mm" stroke="green" stroke-width="0.0254mm" /><circle cx="269.57mm" cy="90.16mm" fill="none" r="1.4mm" stroke="green" stroke-width="0.0254mm" /><circle cx="269.57mm" cy="116.87mm" fill="none" r="1.4mm" stroke="green" stroke-width="0.0254mm" /><circle cx="269.57mm" cy="143.47mm" fill="none" r="1.4mm" stroke="green" stroke-width="0.0254mm" /><circle cx="293.53mm" cy="99.0mm" fill="none" r="1.4mm" stroke="green" stroke-width="0.0254mm" /><circle cx="293.53mm" cy="116.82mm" fill="none" r="1.4mm" stroke="green" stroke-width="0.0254mm" /><circle cx="293.53mm" cy="134.57mm" fill="none" r="1.4mm" stroke="green" stroke-width="0.0254mm" /><rect fill="none" height="3.8mm" stroke="green" stroke-width="0.0254mm" width="8.5mm" x="7.8mm" y="160.75mm" /><circle cx="10.4mm" cy="189.32mm" fill="none" r="1.4mm" stroke="green" stroke-width="0.0254mm" /><circle cx="10.4mm" cy="207.07mm" fill="none" r="1.4mm" stroke="green" stroke-width="0.0254mm" /><circle cx="34.22mm" cy="162.66mm" fill="none" r="1.4mm" stroke="green" stroke-width="0.0254mm" /><circle cx="34.22mm" cy="189.37mm" fill="none" r="1.4mm" stroke="green" stroke-width="0.0254mm" /><circle cx="34.22mm" cy="215.97mm" fill="none" r="1.4mm" stroke="green" stroke-width="0.0254mm" /><circle cx="52.07mm" cy="162.66mm" fill="none" r="1.4mm" stroke="green" stroke-width="0.0254mm" /><circle cx="52.07mm" cy="189.37mm" fill="none" r="1.4mm" stroke="green" stroke-width="0.0254mm" /><circle cx="52.07mm" cy="215.97mm" fill="none" r="1.4mm" stroke="green" stroke-width="0.0254mm" /><circle cx="76.03mm" cy="171.5mm" fill="none" r="1.4mm" stroke="green" stroke-width="0.0254mm" /><circle cx="76.03mm" cy="189.32mm" fill="none" r="1.4mm" stroke="green" stroke-width="0.0254mm" /><circle cx="76.03mm" cy="207.07mm" fill="none" r="1.4mm" stroke="green" stroke-width="0.0254mm" /><rect fill="none" height="3.8mm" stroke="green" stroke-width="0.0254mm" width="8.5mm" x="80.3mm" y="160.75mm" /><circle cx="82.9mm" cy="189.32mm" fill="none" r="1.4mm" stroke="green" stroke-width="0.0254mm" /><circle cx="82.9mm" cy="207.07mm" fill="none" r="1.4mm" stroke="green" stroke-width="0.0254mm" /><circle cx="106.72mm" cy="162.66mm" fill="none" r="1.4mm" stroke="green" stroke-width="0.0254mm" /><circle cx="106.72mm" cy="189.37mm" fill="none" r="1.4mm" stroke="green" stroke-width="0.0254mm" /><circle cx="106.72mm" cy="215.97mm" fill="none" r="1.4mm" stroke="green" stroke-width="0.0254mm" /><circle cx="124.57mm" cy="162.66mm" fill="none" r="1.4mm" stroke="green" stroke-width="0.0254mm" /><circle cx="124.57mm" cy="189.37mm" fill="none" r="1.4mm" stroke="green" stroke-width="0.0254mm" /><circle cx="124.57mm" cy="215.97mm" fill="none" r="1.4mm" stroke="green" stroke-width="0.0254mm" /><circle cx="148.53mm" cy="171.5mm" fill="none" r="1.4mm" stroke="green" stroke-width="0.0254mm" /><circle cx="148.53mm" cy="189.32mm" fill="none" r="1.4mm" stroke="green" stroke-width="0.0254mm" /><circle cx="148.53mm" cy="207.07mm" fill="none" r="1.4mm" stroke="green" stroke-width="0.0254mm" /><rect fill="none" height="3.8mm" stroke="green" stroke-width="0.0254mm" width="8.5mm" x="152.8mm" y="160.75mm" /><circle cx="155.4mm" cy="189.32mm" fill="none" r="1.4mm" stroke="green" stroke-width="0.0254mm" /><circle cx="155.4mm" cy="207.07mm" fill="none" r="1.4mm" stroke="green" stroke-width="0.0254mm" /><circle cx="179.22mm" cy="162.66mm" fill="none" r="1.4mm" stroke="green" stroke-width="0.0254mm" /><circle cx="179.22mm" cy="189.37mm" fill="none" r="1.4mm" stroke="green" stroke-width="0.0254mm" /><circle cx="179.22mm" cy="215.97mm" fill="none" r="1.4mm" stroke="green" stroke-width="0.0254mm" /><circle cx="197.07mm" cy="162.66mm" fill="none" r="1.4mm" stroke="green" stroke-width="0.0254mm" /><circle cx="197.07mm" cy="189.37mm" fill="none" r="1.4mm" stroke="green" stroke-width="0.0254mm" /><circle cx="197.07mm" cy="215.97mm" fill="none" r="1.4mm" stroke="green" stroke-width="0.0254mm" /><circle cx="221.03mm" cy="171.5mm" fill="none" r="1.4mm" stroke="green" stroke-width="0.0254mm" /><circle cx="221.03mm" cy="189.32mm" fill="none" r="1.4mm" stroke="green" stroke-width="0.0254mm" /><circle cx="221.03mm" cy="207.07mm" fill="none" r="1.4mm" stroke="green" stroke-width="0.0254mm" /><rect fill="none" height="3.8mm" stroke="green" stroke-width="0.0254mm" width="8.5mm" x="225.3mm" y="160.75mm" /><circle cx="227.9mm" cy="189.32mm" fill="none" r="1.4mm" stroke="green" stroke-width="0.0254mm" /><circle cx="227.9mm" cy="207.07mm" fill="none" r="1.4mm" stroke="green" stroke-width="0.0254mm" /><circle cx="251.72mm" cy="162.66mm" fill="none" r="1.4mm" stroke="green" stroke-width="0.0254mm" /><circle cx="251.72mm" cy="189.37mm" fill="none" r="1.4mm" stroke="green" stroke-width="0.0254mm" /><circle cx="251.72mm" cy="215.97mm" fill="none" r="1.4mm" stroke="green" stroke-width="0.0254mm" /><circle cx="269.57mm" cy="162.66mm" fill="none" r="1.4mm" stroke="green" stroke-width="0.0254mm" /><circle cx="269.57mm" cy="189.37mm" fill="none" r="1.4mm" stroke="green" stroke-width="0.0254mm" /><circle cx="269.57mm" cy="215.97mm" fill="none" r="1.4mm" stroke="green" stroke-width="0.0254mm" /><circle cx="293.53mm" cy="171.5mm" fill="none" r="1.4mm" stroke="green" stroke-width="0.0254mm" /><circle cx="293.53mm" cy="189.32mm" fill="none" r="1.4mm" stroke="green" stroke-width="0.0254mm" /><circle cx="293.53mm" cy="207.07mm" fill="none" r="1.4mm" stroke="green" stroke-width="0.0254mm" /><rect fill="none" height="3.8mm" stroke="green" stroke-width="0.0254mm" width="8.5mm" x="7.8mm" y="233.25mm" /><circle cx="10.4mm" cy="261.82mm" fill="none" r="1.4mm" stroke="green" stroke-width="0.0254mm" /><circle cx="10.4mm" cy="279.57mm" fill="none" r="1.4mm" stroke="green" stroke-width="0.0254mm" /><circle cx="34.22mm" cy="235.16mm" fill="none" r="1.4mm" stroke="green" stroke-width="0.0254mm" /><circle cx="34.22mm" cy="261.87mm" fill="none" r="1.4mm" stroke="green" stroke-width="0.0254mm" /><circle cx="34.22mm" cy="288.47mm" fill="none" r="1.4mm" stroke="green" stroke-width="0.0254mm" /><circle cx="52.07mm" cy="235.16mm" fill="none" r="1.4mm" stroke="green" stroke-width="0.0254mm" /><circle cx="52.07mm" cy="261.87mm" fill="none" r="1.4mm" stroke="green" stroke-width="0.0254mm" /><circle cx="52.07mm" cy="288.47mm" fill="none" r="1.4mm" stroke="green" stroke-width="0.0254mm" /><circle cx="76.03mm" cy="244.0mm" fill="none" r="1.4mm" stroke="green" stroke-width="0.0254mm" /><circle cx="76.03mm" cy="261.82mm" fill="none" r="1.4mm" stroke="green" stroke-width="0.0254mm" /><circle cx="76.03mm" cy="279.57mm" fill="none" r="1.4mm" stroke="green" stroke-width="0.0254mm" /><rect fill="none" height="3.8mm" stroke="green" stroke-width="0.0254mm" width="8.5mm" x="80.3mm" y="233.25mm" /><circle cx="82.9mm" cy="261.82mm" fill="none" r="1.4mm" stroke="green" stroke-width="0.0254mm" /><circle cx="82.9mm" cy="279.57mm" fill="none" r="1.4mm" stroke="green" stroke-width="0.0254mm" /><circle cx="106.72mm" cy="235.16mm" fill="none" r="1.4mm" stroke="green" stroke-width="0.0254mm" /><circle cx="106.72mm" cy="261.87mm" fill="none" r="1.4mm" stroke="green" stroke-width="0.0254mm" /><circle cx="106.72mm" cy="288.47mm" fill="none" r="1.4mm" stroke="green" stroke-width="0.0254mm" /><circle cx="124.57mm" cy="235.16mm" fill="none" r="1.4mm" stroke="green" stroke-width="0.0254mm" /><circle cx="124.57mm" cy="261.87mm" fill="none" r="1.4mm" stroke="green" stroke-width="0.0254mm" /><circle cx="124.57mm" cy="288.47mm" fill="none" r="1.4mm" stroke="green" stroke-width="0.0254mm" /><circle cx="148.53mm" cy="244.0mm" fill="none" r="1.4mm" stroke="green" stroke-width="0.0254mm" /><circle cx="148.53mm" cy="261.82mm" fill="none" r="1.4mm" stroke="green" stroke-width="0.0254mm" /><circle cx="148.53mm" cy="279.57mm" fill="none" r="1.4mm" stroke="green" stroke-width="0.0254mm" /><rect fill="none" height="3.8mm" stroke="green" stroke-width="0.0254mm" width="8.5mm" x="152.8mm" y="233.25mm" /><circle cx="155.4mm" cy="261.82mm" fill="none" r="1.4mm" stroke="green" stroke-width="0.0254mm" /><circle cx="155.4mm" cy="279.57mm" fill="none" r="1.4mm" stroke="green" stroke-width="0.0254mm" /><circle cx="179.22mm" cy="235.16mm" fill="none" r="1.4mm" stroke="green" stroke-width="0.0254mm" /><circle cx="179.22mm" cy="261.87mm" fill="none" r="1.4mm" stroke="green" stroke-width="0.0254mm" /><circle cx="179.22mm" cy="288.47mm" fill="none" r="1.4mm" stroke="green" stroke-width="0.0254mm" /><circle cx="197.07mm" cy="235.16mm" fill="none" r="1.4mm" stroke="green" stroke-width="0.0254mm" /><circle cx="197.07mm" cy="261.87mm" fill="none" r="1.4mm" stroke="green" stroke-width="0.0254mm" /><circle cx="197.07mm" cy="288.47mm" fill="none" r="1.4mm" stroke="green" stroke-width="0.0254mm" /><circle cx="221.03mm" cy="244.0mm" fill="none" r="1.4mm" stroke="green" stroke-width="0.0254mm" /><circle cx="221.03mm" cy="261.82mm" fill="none" r="1.4mm" stroke="green" stroke-width="0.0254mm" /><circle cx="221.03mm" cy="279.57mm" fill="none" r="1.4mm" stroke="green" stroke-width="0.0254mm" /><rect fill="none" height="3.8mm" stroke="green" stroke-width="0.0254mm" width="8.5mm" x="225.3mm" y="233.25mm" /><circle cx="227.9mm" cy="261.82mm" fill="none" r="1.4mm" stroke="green" stroke-width="0.0254mm" /><circle cx="227.9mm" cy="279.57mm" fill="none" r="1.4mm" stroke="green" stroke-width="0.0254mm" /><circle cx="251.72mm" cy="235.16mm" fill="none" r="1.4mm" stroke="green" stroke-width="0.0254mm" /><circle cx="251.72mm" cy="261.87mm" fill="none" r="1.4mm" stroke="green" stroke-width="0.0254mm" /><circle cx="251.72mm" cy="288.47mm" fill="none" r="1.4mm" stroke="green" stroke-width="0.0254mm" /><circle cx="269.57mm" cy="235.16mm" fill="none" r="1.4mm" stroke="green" stroke-width="0.0254mm" /><circle cx="269.57mm" cy="261.87mm" fill="none" r="1.4mm" stroke="green" stroke-width="0.0254mm" /><circle cx="269.57mm" cy="288.47mm" fill="none" r="1.4mm" stroke="green" stroke-width="0.0254mm" /><circle cx="293.53mm" cy="244.0mm" fill="none" r="1.4mm" stroke="green" stroke-width="0.0254mm" /><circle cx="293.53mm" cy="261.82mm" fill="none" r="1.4mm" stroke="green" stroke-width="0.0254mm" /><circle cx="293.53mm" cy="279.57mm" fill="none" r="1.4mm" stroke="green" stroke-width="0.0254mm" /><rect fill="none" height="3.8mm" stroke="green" stroke-width="0.0254mm" width="8.5mm" x="7.8mm" y="305.75mm" /><circle cx="10.4mm" cy="334.32mm" fill="none" r="1.4mm" stroke="green" stroke-width="0.0254mm" /><circle cx="10.4mm" cy="352.07mm" fill="none" r="1.4mm" stroke="green" stroke-width="0.0254mm" /><circle cx="34.22mm" cy="307.66mm" fill="none" r="1.4mm" stroke="green" stroke-width="0.0254mm" /><circle cx="34.22mm" cy="334.37mm" fill="none" r="1.4mm" stroke="green" stroke-width="0.0254mm" /><circle cx="34.22mm" cy="360.97mm" fill="none" r="1.4mm" stroke="green" stroke-width="0.0254mm" /><circle cx="52.07mm" cy="307.66mm" fill="none" r="1.4mm" stroke="green" stroke-width="0.0254mm" /><circle cx="52.07mm" cy="334.37mm" fill="none" r="1.4mm" stroke="green" stroke-width="0.0254mm" /><circle cx="52.07mm" cy="360.97mm" fill="none" r="1.4mm" stroke="green" stroke-width="0.0254mm" /><circle cx="76.03mm" cy="316.5mm" fill="none" r="1.4mm" stroke="green" stroke-width="0.0254mm" /><circle cx="76.03mm" cy="334.32mm" fill="none" r="1.4mm" stroke="green" stroke-width="0.0254mm" /><circle cx="76.03mm" cy="352.07mm" fill="none" r="1.4mm" stroke="green" stroke-width="0.0254mm" /><rect fill="none" height="3.8mm" stroke="green" stroke-width="0.0254mm" width="8.5mm" x="80.3mm" y="305.75mm" /><circle cx="82.9mm" cy="334.32mm" fill="none" r="1.4mm" stroke="green" stroke-width="0.0254mm" /><circle cx="82.9mm" cy="352.07mm" fill="none" r="1.4mm" stroke="green" stroke-width="0.0254mm" /><circle cx="106.72mm" cy="307.66mm" fill="none" r="1.4mm" stroke="green" stroke-width="0.0254mm" /><circle cx="106.72mm" cy="334.37mm" fill="none" r="1.4mm" stroke="green" stroke-width="0.0254mm" /><circle cx="106.72mm" cy="360.97mm" fill="none" r="1.4mm" stroke="green" stroke-width="0.0254mm" /><circle cx="124.57mm" cy="307.66mm" fill="none" r="1.4mm" stroke="green" stroke-width="0.0254mm" /><circle cx="124.57mm" cy="334.37mm" fill="none" r="1.4mm" stroke="green" stroke-width="0.0254mm" /><circle cx="124.57mm" cy="360.97mm" fill="none" r="1.4mm" stroke="green" stroke-width="0.0254mm" /><circle cx="148.53mm" cy="316.5mm" fill="none" r="1.4mm" stroke="green" stroke-width="0.0254mm" /><circle cx="148.53mm" cy="334.32mm" fill="none" r="1.4mm" stroke="green" stroke-width="0.0254mm" /><circle cx="148.53mm" cy="352.07mm" fill="none" r="1.4mm" stroke="green" stroke-width="0.0254mm" /><rect fill="none" height="3.8mm" stroke="green" stroke-width="0.0254mm" width="8.5mm" x="152.8mm" y="305.75mm" /><circle cx="155.4mm" cy="334.32mm" fill="none" r="1.4mm" stroke="green" stroke-width="0.0254mm" /><circle cx="155.4mm" cy="352.07mm" fill="none" r="1.4mm" stroke="green" stroke-width="0.0254mm" /><circle cx="179.22mm" cy="307.66mm" fill="none" r="1.4mm" stroke="green" stroke-width="0.0254mm" /><circle cx="179.22mm" cy="334.37mm" fill="none" r="1.4mm" stroke="green" stroke-width="0.0254mm" /><circle cx="179.22mm" cy="360.97mm" fill="none" r="1.4mm" stroke="green" stroke-width="0.0254mm" /><circle cx="197.07mm" cy="307.66mm" fill="none" r="1.4mm" stroke="green" stroke-width="0.0254mm" /><circle cx="197.07mm" cy="334.37mm" fill="none" r="1.4mm" stroke="green" stroke-width="0.0254mm" /><circle cx="197.07mm" cy="360.97mm" fill="none" r="1.4mm" stroke="green" stroke-width="0.0254mm" /><circle cx="221.03mm" cy="316.5mm" fill="none" r="1.4mm" stroke="green" stroke-width="0.0254mm" /><circle cx="221.03mm" cy="334.32mm" fill="none" r="1.4mm" stroke="green" stroke-width="0.0254mm" /><circle cx="221.03mm" cy="352.07mm" fill="none" r="1.4mm" stroke="green" stroke-width="0.0254mm" /><rect fill="none" height="3.8mm" stroke="green" stroke-width="0.0254mm" width="8.5mm" x="225.3mm" y="305.75mm" /><circle cx="227.9mm" cy="334.32mm" fill="none" r="1.4mm" stroke="green" stroke-width="0.0254mm" /><circle cx="227.9mm" cy="352.07mm" fill="none" r="1.4mm" stroke="green" stroke-width="0.0254mm" /><circle cx="251.72mm" cy="307.66mm" fill="none" r="1.4mm" stroke="green" stroke-width="0.0254mm" /><circle cx="251.72mm" cy="334.37mm" fill="none" r="1.4mm" stroke="green" stroke-width="0.0254mm" /><circle cx="251.72mm" cy="360.97mm" fill="none" r="1.4mm" stroke="green" stroke-width="0.0254mm" /><circle cx="269.57mm" cy="307.66mm" fill="none" r="1.4mm" stroke="green" stroke-width="0.0254mm" /><circle cx="269.57mm" cy="334.37mm" fill="none" r="1.4mm" stroke="green" stroke-width="0.0254mm" /><circle cx="269.57mm" cy="360.97mm" fill="none" r="1.4mm" stroke="green" stroke-width="0.0254mm" /><circle cx="293.53mm" cy="316.5mm" fill="none" r="1.4mm" stroke="green" stroke-width="0.0254mm" /><circle cx="293.53mm" cy="334.32mm" fill="none" r="1.4mm" stroke="green" stroke-width="0.0254mm" /><circle cx="293.53mm" cy="352.07mm" fill="none" r="1.4mm" stroke="green" stroke-width="0.0254mm" /></svg>